<svg version="1.1" id="Layer_1" xmlns="http://www.w3.org/2000/svg" xmlns:xlink="http://www.w3.org/1999/xlink" x="0px" y="0px"
	 width="100%" viewBox="0 0 1024 1024" enable-background="new 0 0 1024 1024" xml:space="preserve">
<path fill="currentColor" opacity="1.000000" stroke="none" 
	d="
M422.782349,829.255127 
	C420.607483,826.971558 418.703369,824.920593 416.614441,822.670471 
	C412.555969,825.847534 409.389008,829.779236 404.995880,832.241882 
	C389.160767,841.118713 372.272156,843.088074 354.692657,839.745422 
	C329.273468,834.912109 310.312805,821.480957 299.789825,797.326782 
	C298.574280,794.536560 296.467804,793.795532 293.945496,793.439453 
	C262.102997,788.944824 242.944107,769.859253 233.899506,740.061890 
	C225.313568,711.775635 228.283417,683.359436 235.095993,655.171631 
	C244.137024,617.763489 260.630127,583.403564 278.839813,549.801453 
	C281.080597,545.666626 281.375702,542.582214 279.035492,538.409668 
	C265.121826,513.601807 257.436768,486.912292 255.955521,458.497650 
	C255.760635,454.759277 254.078796,453.859314 250.867050,454.514526 
	C244.505569,455.812225 238.153000,457.153473 231.796204,458.474152 
	C230.494431,458.744598 229.200272,459.150970 227.885345,459.240143 
	C224.145844,459.493713 220.712158,458.861725 219.610382,454.584167 
	C218.474472,450.174133 220.878601,447.628479 224.712723,446.142242 
	C231.424744,443.540497 238.509384,442.334991 245.504700,440.853119 
	C255.010971,438.839294 255.051620,438.952911 256.180420,429.552856 
	C257.073273,422.117584 257.653992,414.632324 258.887787,407.255341 
	C259.572296,403.162628 257.913971,401.916351 254.399536,401.336578 
	C246.353729,400.009216 238.334564,398.520508 230.303879,397.101227 
	C224.134232,396.010803 221.269852,392.151642 223.333786,387.601105 
	C225.059830,383.795502 228.391479,383.077576 232.108948,383.348846 
	C240.589371,383.967651 249.024246,385.030487 257.309845,386.923248 
	C261.245972,387.822479 262.940521,386.634949 264.152924,382.792908 
	C271.216949,360.407654 281.038055,339.339264 295.074951,320.399170 
	C297.178955,317.560242 297.886322,314.585083 297.771362,311.089050 
	C296.968903,286.690125 298.268036,262.478638 304.634247,238.748962 
	C306.843475,230.514221 309.606110,222.502090 313.763367,215.027832 
	C320.693604,202.568069 331.136047,199.633316 343.631317,206.652451 
	C355.467041,213.301117 364.507294,223.097260 373.290192,233.167892 
	C375.031067,235.163986 376.493958,237.422958 378.805573,238.895279 
	C380.732635,238.616470 381.552795,237.007187 382.504028,235.744278 
	C406.586853,203.770752 439.132477,185.511353 477.604279,176.637848 
	C506.759369,169.913269 536.349243,169.421921 566.036804,169.782471 
	C578.852966,169.938126 591.772705,171.274246 604.459961,169.087891 
	C621.452454,166.159637 635.568054,156.710754 649.594360,147.360382 
	C654.721985,143.942184 659.608582,140.164368 664.699707,136.689194 
	C669.453125,133.444611 673.576843,133.738434 676.227234,137.271439 
	C679.089355,141.086578 678.046936,145.217529 673.349426,148.751907 
	C657.342407,160.795639 640.906372,172.148880 622.272034,179.861206 
	C613.256165,183.592667 603.869019,185.486801 594.048584,185.398575 
	C574.384644,185.221939 554.707397,184.770309 535.056946,185.270859 
	C506.292969,186.003586 477.933929,189.509171 451.221344,201.262848 
	C426.037323,212.343933 405.230621,228.606110 390.778503,252.397812 
	C388.412903,256.292114 386.801636,260.458893 385.673126,264.827911 
	C384.953583,267.613739 384.757843,270.441895 386.182983,273.110046 
	C387.576477,275.719086 389.809845,276.907196 392.752930,276.800018 
	C395.081451,276.715240 396.827820,275.987244 397.787384,273.539093 
	C407.528595,248.685776 426.409729,232.745560 449.448944,220.970734 
	C459.741302,215.710541 470.594330,211.994934 482.048370,210.184097 
	C483.353638,209.977737 484.721466,209.771225 486.010773,209.940964 
	C488.846313,210.314285 491.167542,211.600235 491.659882,214.719284 
	C492.143250,217.781204 490.606598,219.979980 487.881134,221.034363 
	C483.847870,222.594650 479.680756,223.806793 475.580658,225.196762 
	C452.618469,232.981155 432.829865,245.245224 418.762787,265.548645 
	C416.287079,269.121857 414.139893,272.892792 412.889496,277.084900 
	C410.588074,284.800751 414.561310,289.835907 422.453705,288.844879 
	C429.691376,287.936066 435.474823,284.723755 439.481720,278.114746 
	C449.366455,261.810944 464.394562,251.480713 481.383850,243.843567 
	C494.850128,237.790070 509.011475,234.192230 523.853455,233.536118 
	C531.737366,233.187607 535.188049,234.623535 535.703918,238.800201 
	C536.207153,242.874329 533.302429,244.888123 525.127808,246.176987 
	C506.170807,249.165909 488.130432,254.679214 472.147064,265.704559 
	C465.813385,270.073547 459.948761,274.997253 455.476074,281.361542 
	C454.426544,282.854980 453.426788,284.411072 452.626129,286.046997 
	C449.152313,293.144836 452.529633,299.080414 460.491364,299.923859 
	C467.288330,300.643951 473.731934,299.085144 480.057770,296.797394 
	C488.355255,293.796600 496.554901,290.554718 505.057587,288.095337 
	C522.617615,283.016144 540.185364,282.965820 557.904663,287.032806 
	C568.936951,289.564941 579.923279,292.489655 591.215698,293.560577 
	C606.726379,295.031525 621.336853,291.297699 635.267822,284.722412 
	C659.990234,273.053711 681.829224,256.864044 703.628967,240.659149 
	C726.252930,223.841553 747.766968,205.708359 767.777161,185.812210 
	C771.877319,181.735428 776.766724,181.501770 779.736633,184.650818 
	C782.616028,187.703918 782.064819,192.456345 778.001648,196.670273 
	C762.708740,212.530731 746.131836,226.968658 728.865723,240.627625 
	C719.236267,248.245361 709.566040,255.811523 699.309937,263.876038 
	C704.980591,265.701782 709.665100,267.792999 712.139221,272.777008 
	C715.578308,279.704681 716.327393,287.186310 715.819031,294.693024 
	C714.487000,314.363922 710.743347,333.616211 704.678711,352.386047 
	C703.271790,356.740295 703.598633,360.470062 705.784241,364.712250 
	C721.147705,394.532501 729.173889,426.520477 733.384216,459.637085 
	C735.403809,475.522308 736.216858,491.480408 736.684692,507.440491 
	C737.066772,520.471191 741.556213,532.158997 746.547913,543.818237 
	C758.277466,571.215027 770.441162,598.445435 777.775146,627.487549 
	C783.188293,648.923157 786.030334,670.628601 785.150757,692.774719 
	C784.909119,698.856812 785.728088,699.364685 791.761780,698.095886 
	C806.118896,695.076721 816.920837,686.799683 824.851501,674.873291 
	C839.331360,653.097839 841.980042,628.872314 837.077881,603.902771 
	C833.535095,585.857117 824.092529,578.227417 805.573120,575.347595 
	C786.942688,572.450500 773.822449,559.768555 772.676758,543.535339 
	C771.590942,528.150757 776.941956,515.166016 788.567200,505.341125 
	C810.370789,486.914124 834.819153,485.492126 860.181458,496.594330 
	C882.479370,506.355133 897.026489,524.074524 907.097961,545.737244 
	C920.994751,575.627991 925.120911,607.114685 922.475647,639.763550 
	C919.880920,671.788269 911.625122,702.096680 894.861938,729.642212 
	C874.947937,762.365295 846.544861,783.354553 808.249329,789.725403 
	C791.105469,792.577454 774.032166,791.889038 757.292297,787.021667 
	C753.294434,785.859314 751.052917,786.856018 748.328857,789.905884 
	C728.044556,812.616394 702.503967,826.790405 673.235168,834.087463 
	C628.820984,845.160522 584.828369,844.249573 541.728638,827.541382 
	C539.169434,826.549255 537.354675,826.991272 535.419739,828.734009 
	C518.378967,844.083191 497.720795,847.388550 475.823792,846.552002 
	C463.415894,846.077942 451.331177,844.026978 439.773407,839.330872 
	C433.717865,836.870300 428.034271,833.774780 422.782349,829.255127 
M399.057526,292.951721 
	C397.893921,292.062958 396.540161,292.265015 395.216766,292.275635 
	C377.110016,292.420898 367.403717,281.099823 370.431366,263.373474 
	C370.887848,260.700867 370.939911,258.198822 369.234375,255.745407 
	C361.590851,244.750259 353.130676,234.480530 342.792755,225.904907 
	C332.441284,217.318054 328.900848,218.235703 324.345520,230.847778 
	C314.659637,257.664429 313.100403,285.513550 314.728607,313.621094 
	C315.047485,319.125916 313.702759,323.299683 310.509338,327.398865 
	C296.714691,345.106262 287.598663,365.184296 280.514313,386.336761 
	C278.987366,390.896088 280.422821,392.551453 284.659607,393.669983 
	C293.365631,395.968536 301.749390,399.276703 310.011749,402.832977 
	C315.189575,405.061554 317.094421,408.765015 315.438904,412.506195 
	C313.757660,416.305511 310.051880,417.256287 304.690460,415.456360 
	C297.273834,412.966492 289.846954,410.499969 282.371521,408.195129 
	C276.699493,406.446320 276.088593,406.925598 275.048920,412.508362 
	C273.918793,418.576965 273.291534,424.688110 273.027405,430.858765 
	C272.770264,436.865265 272.920715,437.164948 278.871552,436.571777 
	C287.021729,435.759399 295.170807,435.463501 303.290070,436.765961 
	C307.029510,437.365814 309.304443,439.561066 309.280151,443.542084 
	C309.256744,447.375580 306.876068,449.191528 303.408997,449.864166 
	C302.273254,450.084503 301.091034,450.177216 299.933441,450.154663 
	C292.258728,450.005035 284.630798,450.746155 276.982819,451.166229 
	C273.170410,451.375610 271.968079,452.939545 272.416229,456.469482 
	C273.715271,466.700989 274.792267,476.954559 276.982513,487.063904 
	C280.760132,504.499878 288.030670,520.534912 296.338409,536.158691 
	C299.173065,541.489563 299.152954,546.607910 296.321716,551.873596 
	C293.403137,557.301758 290.617920,562.801392 287.741882,568.252625 
	C271.532257,598.976746 257.099823,630.414856 249.731506,664.610291 
	C244.886520,687.095398 242.518616,709.730408 248.369156,732.398682 
	C253.328140,751.612671 263.772003,766.592834 282.836945,774.305237 
	C285.552246,775.403687 288.372498,776.533752 291.624695,775.583862 
	C292.392334,770.203125 290.435211,765.285522 289.702850,760.250854 
	C286.087250,735.395508 285.895416,710.449524 287.886505,685.487488 
	C289.051697,670.879395 291.547058,656.429321 295.152313,642.205383 
	C296.462952,637.034546 299.677032,634.147156 303.218201,634.964844 
	C308.364410,636.153137 308.682007,640.317322 308.236603,644.460571 
	C307.614532,650.247131 306.632568,655.994873 305.808563,661.759766 
	C300.659302,697.784424 300.143677,733.782349 307.492340,769.563171 
	C310.571259,784.554443 316.032104,798.718628 327.570038,809.584167 
	C332.398041,814.130859 337.799652,817.905640 344.576569,820.022705 
	C345.171295,817.459900 344.709747,815.533508 344.257812,813.623962 
	C342.866150,807.743896 342.299286,801.778564 342.773499,795.767578 
	C343.085114,791.817383 343.946625,787.916016 348.984131,787.505981 
	C352.668091,787.206238 354.809021,790.075928 355.368591,795.436829 
	C356.252136,803.901978 357.526978,812.274292 361.178619,820.105042 
	C362.369080,822.657776 363.651520,824.651611 366.912384,824.813171 
	C375.692474,825.248230 384.322113,824.555542 392.270966,820.613403 
	C402.055023,815.761108 408.289978,808.485352 407.791595,796.659241 
	C407.420074,787.842651 407.715485,778.997742 407.721283,770.165466 
	C407.722687,767.997314 407.708496,765.823181 408.615753,763.779846 
	C410.025024,760.605957 412.287506,758.566528 415.930786,758.826904 
	C419.335022,759.070190 421.455841,761.177307 422.209656,764.365417 
	C422.739166,766.604858 422.828522,768.972717 422.906708,771.290222 
	C423.237366,781.095276 422.439606,790.932129 424.356049,800.685669 
	C427.911652,818.781494 447.599579,828.432312 461.155060,827.941833 
	C460.897247,824.814087 460.524689,821.695557 460.404602,818.567383 
	C460.082062,810.166199 461.197998,801.948242 464.160339,794.059509 
	C465.360596,790.863342 467.641571,788.488953 471.348846,789.156067 
	C474.829742,789.782349 476.060333,792.663086 476.160980,795.891357 
	C476.227875,798.037659 475.956024,800.210266 475.670624,802.348999 
	C474.634216,810.115479 473.645294,817.847351 475.312317,825.684998 
	C476.044830,829.128906 477.464966,830.854797 481.281403,830.830383 
	C486.468079,830.797180 491.616852,830.504028 496.707520,829.661560 
	C513.527771,826.877869 526.490723,818.687622 533.951782,802.823242 
	C538.133423,793.931946 539.700500,784.451477 540.651550,774.808472 
	C541.402771,767.191040 544.641174,763.231995 549.599548,763.916382 
	C554.242310,764.557190 556.789612,769.744812 555.993774,776.843689 
	C554.786133,787.615601 553.351685,798.345459 549.157959,808.457703 
	C548.102234,811.003235 548.746643,812.643738 551.112671,813.726440 
	C552.774353,814.486816 554.462280,815.218262 556.195251,815.790649 
	C589.421204,826.764526 623.212402,827.267700 657.344543,821.160828 
	C685.954346,816.041931 711.527283,804.636963 731.883057,783.455872 
	C757.184875,757.128296 767.675232,724.766357 768.623291,688.889832 
	C769.253845,665.026917 765.447571,641.720886 758.343689,619.014038 
	C750.527161,594.029297 740.089905,570.034058 729.825562,545.982544 
	C725.243469,535.245850 721.452454,524.276184 720.681885,512.435669 
	C719.536804,494.838898 719.198425,477.198914 716.790405,459.670746 
	C712.263550,426.719574 703.856812,395.057312 687.237366,365.966309 
	C685.009155,362.066010 684.727112,358.417969 686.159302,354.088501 
	C692.915527,333.664307 698.818298,313.027771 698.827881,291.235168 
	C698.832520,280.688995 696.135681,278.569550 685.648926,280.806091 
	C675.337036,283.005341 665.636658,286.498169 656.416077,291.928589 
	C637.841980,302.867798 618.078308,310.624878 595.993774,310.158844 
	C583.419189,309.893463 571.275757,306.749359 559.190491,303.713470 
	C538.672119,298.559174 518.669922,299.711823 498.824219,306.906250 
	C489.295166,310.360687 479.905365,314.481689 469.743958,315.809723 
	C458.097809,317.331818 447.239502,315.717712 439.808868,305.401245 
	C437.525970,302.231750 435.751709,301.763824 432.100220,302.864136 
	C416.263489,307.636017 408.067291,305.103760 399.057526,292.951721 
M866.813721,740.315918 
	C875.130310,731.108154 881.999451,720.907776 887.492004,709.798340 
	C902.450439,679.542847 908.127686,647.392639 906.796082,613.863159 
	C905.768982,588.002991 900.380493,563.219727 886.299500,541.154236 
	C872.016296,518.771484 852.960571,504.121948 824.547913,506.196289 
	C807.995972,507.404694 792.971863,519.088440 789.158203,534.006897 
	C786.965088,542.585999 789.795227,549.298706 796.344910,554.857178 
	C801.210938,558.986877 807.264832,559.627991 813.120728,560.686340 
	C834.639648,564.575684 847.133850,577.830322 852.228455,598.494263 
	C858.169189,622.590332 855.938354,646.334534 846.351746,668.972229 
	C835.413879,694.800659 816.593689,711.673096 787.708923,714.965332 
	C783.765808,715.414795 782.309204,716.826599 781.625183,720.486511 
	C778.476624,737.332947 772.493225,753.165405 764.049011,768.074768 
	C763.497620,769.048340 762.616089,769.976685 763.196960,771.263794 
	C792.418823,780.575012 836.424683,773.999451 866.813721,740.315918 
z"/>
<path fill="currentColor" opacity="1.000000" stroke="none" 
	d="
M167.907684,535.774841 
	C166.128983,521.818909 175.201797,513.874390 188.156158,517.986084 
	C192.015793,519.211121 193.172409,517.024414 194.920319,514.812500 
	C201.681976,506.255737 212.326172,505.737335 218.217148,513.793945 
	C221.362457,518.095459 222.747284,523.094666 221.858429,528.402771 
	C220.061996,539.130676 214.544708,548.271362 208.955978,557.331055 
	C207.411041,559.835449 204.803253,560.844971 202.000900,560.081604 
	C191.504227,557.222046 181.428040,553.464478 173.490128,545.542175 
	C170.830002,542.887329 169.316162,539.584106 167.907684,535.774841 
M203.451065,546.719788 
	C205.455276,543.075562 207.609802,539.504150 209.420700,535.766296 
	C211.175659,532.143921 212.221832,528.268066 211.778275,524.164307 
	C211.498444,521.575562 210.746353,519.078796 207.856430,518.412964 
	C204.885193,517.728394 203.306427,519.922607 201.916534,522.047852 
	C200.613464,524.040283 200.332336,526.379089 199.846710,528.666138 
	C198.630478,534.394226 195.309479,535.514465 191.110550,531.574402 
	C189.139236,529.724670 187.165741,528.005920 184.541031,527.197937 
	C180.408157,525.925659 177.601547,528.034851 177.716980,532.360168 
	C177.778183,534.653809 178.935898,536.463806 180.416031,538.108582 
	C185.519806,543.780151 192.315018,546.449585 199.306625,548.786621 
	C201.038971,549.365723 202.200424,548.741821 203.451065,546.719788 
z"/>
<path fill="currentColor" opacity="1.000000" stroke="none" 
	d="
M116.416847,480.736633 
	C114.805786,481.275360 113.541733,481.874847 112.251320,481.938293 
	C109.852348,482.056274 108.092392,480.864929 107.324875,478.530365 
	C106.574265,476.247223 107.552986,474.532135 109.598488,473.637939 
	C112.795341,472.240479 114.371559,469.745972 115.302162,466.545563 
	C116.513802,462.378632 116.031364,459.473175 111.480827,457.307739 
	C103.987488,453.741943 99.456505,447.024872 95.541908,439.980499 
	C94.115463,437.413574 94.046066,434.634491 96.955231,433.031830 
	C99.888474,431.415924 101.914810,433.140717 103.582756,435.580994 
	C106.726738,440.180664 109.318016,445.336121 115.487175,447.974670 
	C116.244858,444.065674 115.623482,440.511505 115.357964,436.979889 
	C115.283897,435.994781 114.849373,435.035583 114.785431,434.051147 
	C114.557838,430.547211 112.930969,425.923004 118.446014,425.431183 
	C123.516983,424.978973 123.804070,429.524200 124.183594,433.135498 
	C125.257698,443.356201 126.709579,453.558350 125.319458,463.896027 
	C124.427803,470.526855 122.756432,476.618683 116.416847,480.736633 
z"/>
<path fill="currentColor" opacity="1.000000" stroke="none" 
	d="
M73.414551,476.114838 
	C70.910530,474.889160 70.236092,472.834564 69.493904,470.778564 
	C67.235649,464.522888 64.890305,458.298615 62.639484,452.040344 
	C61.711788,449.460938 59.873055,446.842957 62.360306,444.144073 
	C64.984276,441.296844 67.545746,443.559692 70.102013,444.393707 
	C70.562637,444.088287 71.057060,443.894440 71.362442,443.538452 
	C79.332840,434.246857 87.206238,435.017609 92.569008,445.974213 
	C95.116295,451.178558 96.923462,456.759888 98.855415,462.244598 
	C99.851906,465.073608 99.170853,467.680756 96.054642,468.759552 
	C93.002106,469.816284 91.342186,467.789032 90.346901,465.319397 
	C88.607468,461.003357 87.218132,456.541412 85.366875,452.277466 
	C84.499428,450.279480 83.619499,447.288208 80.739082,447.875977 
	C78.208755,448.392242 77.985733,451.267365 77.272667,453.489655 
	C75.504463,459.000336 77.760567,463.906952 79.228806,468.992218 
	C80.706390,474.109833 79.294868,475.845001 73.414551,476.114838 
z"/>
<path fill="currentColor" opacity="1.000000" stroke="none" 
	d="
M147.926575,453.266724 
	C139.412277,456.813538 133.051788,453.833618 130.702774,445.419891 
	C128.674286,438.154175 129.699982,431.223114 133.615646,424.809784 
	C136.945541,419.355927 141.953995,417.499939 148.096252,418.624054 
	C151.619171,419.268768 153.209503,421.359039 154.041199,424.478821 
	C155.109787,428.487305 156.185272,432.493927 157.255844,436.501892 
	C157.786316,438.487823 158.708755,440.242401 160.466980,441.392181 
	C163.004318,443.051514 164.417847,445.260864 162.807159,448.107788 
	C161.013962,451.277283 158.163086,450.659729 155.383224,449.412292 
	C154.783524,449.143188 154.174759,448.894348 153.307190,448.523834 
	C151.645065,450.026642 149.954681,451.555023 147.926575,453.266724 
M146.792068,440.267578 
	C148.178986,435.708801 146.599915,431.711121 144.787994,427.228638 
	C139.173492,429.862183 138.925461,434.683380 138.708450,439.113525 
	C138.600739,441.312225 138.794083,444.611725 141.833008,445.205994 
	C144.655502,445.757935 145.487396,442.975281 146.792068,440.267578 
z"/>
<path fill="currentColor" opacity="1.000000" stroke="none" 
	d="
M167.613892,415.645752 
	C169.487503,413.643066 171.387070,412.328278 173.615707,411.497559 
	C180.479767,408.938934 186.182114,412.187744 187.454742,419.305878 
	C188.040176,422.580444 188.700943,425.850006 189.529999,429.069672 
	C190.109818,431.321442 190.906509,433.532288 193.291855,434.684357 
	C195.744553,435.868958 196.763687,437.815460 195.630569,440.427216 
	C194.423798,443.208710 191.781708,444.205444 189.421494,443.004333 
	C185.698929,441.109924 183.557938,442.608978 180.723801,444.839722 
	C174.602966,449.657318 166.003601,446.615814 163.683105,438.717529 
	C161.327576,430.699951 162.127640,422.874664 167.613892,415.645752 
M179.739914,429.388062 
	C178.997238,426.368256 180.264816,421.415070 176.660461,420.956543 
	C172.720764,420.455322 172.653397,425.343018 171.836716,428.419037 
	C170.944031,431.781311 170.689621,436.064270 174.381210,436.877472 
	C178.329636,437.747284 179.276840,433.557190 179.739914,429.388062 
z"/>
<path fill="currentColor" opacity="1.000000" stroke="none" 
	d="
M752.232056,278.833191 
	C763.180603,295.328796 762.685791,311.964203 754.291443,328.874786 
	C753.475769,330.518005 752.432983,332.051758 750.851257,333.089386 
	C749.512573,333.967529 748.100342,334.270752 746.635620,333.352264 
	C745.007080,332.330963 744.455872,330.808258 744.989014,329.042786 
	C745.467712,327.457397 746.235962,325.960419 746.859985,324.417786 
	C753.057312,309.097839 753.474365,294.307709 742.880615,280.499573 
	C741.360352,278.518036 740.367310,276.223938 742.658936,274.278656 
	C744.892639,272.382446 747.053528,273.643402 748.885315,275.315613 
	C749.989380,276.323486 750.968079,277.468750 752.232056,278.833191 
z"/>
<path fill="currentColor" opacity="1.000000" stroke="none" 
	d="
M258.522400,332.676941 
	C251.564682,326.772278 251.134964,318.732819 251.061722,311.015137 
	C250.966232,300.953827 253.222549,291.210175 258.262024,282.303009 
	C258.834930,281.290405 259.354828,280.223145 260.078156,279.325287 
	C261.836823,277.142212 263.626526,274.230133 266.947845,276.301880 
	C270.265991,278.371674 268.548065,281.207794 267.237854,283.763062 
	C260.371887,297.153564 257.838409,310.955902 262.773254,325.657928 
	C263.883423,328.965393 264.842560,333.006378 258.522400,332.676941 
z"/>
<path fill="currentColor" opacity="1.000000" stroke="none" 
	d="
M782.047729,286.294983 
	C784.369507,296.876465 783.698547,306.864807 780.071716,316.634460 
	C779.552490,318.033295 778.929199,319.417297 778.167297,320.696960 
	C776.846497,322.915344 775.215820,325.193573 772.243286,323.740143 
	C769.370056,322.335205 769.746521,319.737915 770.866150,317.251373 
	C773.503113,311.395020 774.623047,305.242828 774.816284,298.843475 
	C775.045349,291.257629 772.946533,284.395630 768.928894,278.044739 
	C768.661865,277.622650 768.382324,277.208313 768.120056,276.783295 
	C766.737183,274.542908 765.545410,272.043427 768.140015,270.108521 
	C771.014832,267.964630 773.123108,270.138184 774.875305,272.246002 
	C778.218689,276.268127 780.514099,280.861908 782.047729,286.294983 
z"/>
<path fill="currentColor" opacity="1.000000" stroke="none" 
	d="
M241.983643,297.983948 
	C239.922943,306.300964 238.272110,314.235657 240.076096,322.465179 
	C240.564713,324.694183 240.178879,327.057800 237.608002,327.769287 
	C235.040726,328.479706 233.597839,326.600433 232.741302,324.497955 
	C231.349533,321.081543 230.643661,317.468964 230.923111,313.789001 
	C231.566620,305.314575 232.912659,296.965820 236.562546,289.182587 
	C237.783737,286.578430 239.370529,283.686584 242.872864,285.097046 
	C246.364716,286.503235 244.902405,289.424744 244.035919,291.941803 
	C243.387741,293.824768 242.754303,295.712830 241.983643,297.983948 
z"/>
<path fill="currentColor" opacity="1.000000" stroke="none" 
	d="
M223.405045,413.787292 
	C226.700684,417.221039 225.064453,420.218018 223.021118,422.919525 
	C220.563995,426.168152 216.972122,427.266266 213.263306,425.796875 
	C209.671860,424.373932 206.511673,422.222473 203.408295,426.609039 
	C202.624817,427.716461 200.924881,427.237030 199.839142,426.221283 
	C198.382217,424.858246 197.951111,423.190643 198.458282,421.249329 
	C199.589767,416.918549 204.886536,413.659515 209.468521,415.176605 
	C213.385788,416.473602 216.823853,417.946533 219.849869,413.681732 
	C220.525238,412.729889 221.971100,412.953339 223.405045,413.787292 
z"/>
<path fill="currentColor" opacity="1.000000" stroke="none" 
	d="
M441.723328,444.853760 
	C443.927704,443.535980 445.550873,442.104126 446.692688,440.220398 
	C448.591095,437.088379 449.505371,434.179504 445.339783,431.861359 
	C443.796906,431.002777 442.517578,429.512268 441.389709,428.093933 
	C436.630859,422.109558 438.402039,414.827667 445.567413,412.314362 
	C454.541412,409.166748 463.406036,410.291779 471.542511,415.071014 
	C477.224762,418.408600 477.684753,424.624176 473.191864,429.552765 
	C471.349091,431.574158 469.030487,432.821259 466.608795,433.975403 
	C461.895599,436.221649 461.190491,438.374756 463.540222,442.986359 
	C466.980896,449.738953 475.949402,452.281891 482.234894,448.052795 
	C485.589905,445.795441 488.730103,444.278534 491.903229,447.953430 
	C494.236206,450.655334 493.221741,454.687408 489.603760,458.086761 
	C489.361359,458.314514 489.128693,458.631805 488.836426,458.715820 
	C480.946747,460.983978 480.403351,467.771606 478.882721,474.238342 
	C477.126862,481.705444 474.600555,488.942169 469.209778,494.793762 
	C457.105896,507.932312 437.833893,504.497314 431.008026,487.920929 
	C427.783325,480.089874 426.724792,471.849487 426.929474,463.462982 
	C427.016815,459.884613 426.530914,457.009247 423.054962,455.062164 
	C420.848541,453.826172 419.563568,451.556549 418.690063,449.138397 
	C417.542389,445.961182 417.976074,443.087219 420.827515,441.149597 
	C423.709503,439.191254 426.218384,440.491516 428.319031,442.798187 
	C432.105316,446.955933 436.478699,447.571381 441.723328,444.853760 
M466.012726,474.461029 
	C469.151154,464.046814 469.307556,463.798340 460.923431,458.521057 
	C458.012238,456.688660 456.777344,451.001465 451.924042,453.407196 
	C448.523895,455.092621 445.300598,457.166534 441.752533,458.614136 
	C440.775696,459.012695 440.247223,459.943207 440.173126,460.995361 
	C439.608521,469.013794 439.452545,477.060577 443.567810,484.307434 
	C447.458008,491.157990 454.921631,491.630463 460.106323,485.672028 
	C462.772705,482.607697 464.374023,478.965820 466.012726,474.461029 
z"/>
<path fill="currentColor" opacity="1.000000" stroke="none" 
	d="
M606.768555,436.518311 
	C627.236511,433.196747 647.386475,431.120575 667.740540,431.839355 
	C669.705322,431.908752 671.731323,432.294800 673.587036,432.941071 
	C676.633057,434.001801 678.003296,436.421051 677.631897,439.596283 
	C677.265381,442.730072 675.537292,444.947388 672.260437,445.237091 
	C667.294006,445.676147 662.305115,446.048065 657.322937,446.086945 
	C641.161804,446.213104 625.154968,448.098785 609.145142,450.010956 
	C607.991333,450.148773 606.826965,450.245483 605.665771,450.266785 
	C601.679443,450.340088 598.709351,448.698029 598.083496,444.595093 
	C597.483093,440.658752 600.012451,438.472687 603.445251,437.239380 
	C604.373169,436.906006 605.385315,436.806915 606.768555,436.518311 
z"/>
<path fill="currentColor" opacity="1.000000" stroke="none" 
	d="
M627.873657,486.259460 
	C619.501221,484.535400 611.539734,482.868195 603.571899,481.231415 
	C601.613831,480.829163 599.619019,480.529266 597.957703,479.322723 
	C595.776855,477.738922 594.530579,475.591034 595.081055,472.874146 
	C595.666199,469.986633 597.605835,468.070557 600.544189,467.836151 
	C603.340698,467.613098 606.234253,467.620819 608.993713,468.078400 
	C627.545898,471.154449 645.872253,475.196869 663.626404,481.529144 
	C670.816345,484.093506 673.433411,487.370880 671.899841,491.783844 
	C670.388550,496.132782 666.512146,496.899231 659.040771,494.759369 
	C648.821228,491.832489 638.538086,489.127594 627.873657,486.259460 
z"/>
<path fill="currentColor" opacity="1.000000" stroke="none" 
	d="
M408.694122,408.642334 
	C406.713226,407.888031 405.521545,406.682648 404.558472,405.335571 
	C396.461548,394.010345 379.072723,395.036713 370.218506,404.434357 
	C366.369110,408.519989 362.985962,408.940399 359.767334,406.235626 
	C356.347656,403.361847 356.497528,398.398926 360.340820,394.299072 
	C366.113373,388.141266 373.257263,384.502960 381.563721,382.995605 
	C395.370178,380.490265 410.743011,387.095795 415.998260,397.899933 
	C419.002472,404.076172 416.052948,408.692322 408.694122,408.642334 
z"/>
<path fill="currentColor" opacity="1.000000" stroke="none" 
	d="
M534.471313,410.374512 
	C530.425598,411.292206 527.468750,413.442261 524.444641,415.507874 
	C520.506958,418.197510 516.552979,418.000000 514.186707,414.976410 
	C511.336365,411.334412 512.646606,407.886383 515.493286,405.188690 
	C534.101440,387.554199 562.334351,394.838593 571.766968,414.368530 
	C573.844543,418.670197 572.836670,422.491394 569.349548,424.305786 
	C565.277466,426.424530 562.092285,424.536743 559.946838,421.256958 
	C555.798279,414.914948 550.424316,410.832855 542.758423,409.762360 
	C540.004333,409.377808 537.492554,410.143768 534.471313,410.374512 
z"/>
</svg>