<svg version="1.1" id="Layer_1" xmlns="http://www.w3.org/2000/svg" xmlns:xlink="http://www.w3.org/1999/xlink" x="0px" y="0px"
	 width="100%" viewBox="0 0 1024 1024" enable-background="new 0 0 1024 1024" xml:space="preserve">
<path fill="currentColor" opacity="1.000000" stroke="none" 
	d="
M422.333496,820.786560 
	C412.703735,815.992188 405.184265,809.341675 399.664825,800.621216 
	C396.671478,801.206299 395.964417,803.771301 394.450012,805.395020 
	C382.895325,817.782959 368.195282,822.762817 351.791229,822.965393 
	C333.046112,823.196960 315.574554,818.526672 299.866974,807.852539 
	C285.801819,798.294617 276.911530,784.861450 270.701019,769.444763 
	C269.325897,766.031372 267.341980,764.673340 263.863464,763.989136 
	C244.969070,760.272827 228.081467,752.547241 214.561523,738.406799 
	C202.028351,725.298462 195.732346,709.421936 194.820724,691.555176 
	C193.496384,665.599731 200.251968,641.047913 209.361053,617.103699 
	C222.340775,582.985107 238.297333,550.154907 253.494354,517.003723 
	C255.473785,512.685730 253.908325,509.778442 251.771423,506.455750 
	C236.092117,482.076141 225.184875,455.773743 220.296585,427.124359 
	C219.375397,421.725403 219.112137,416.212433 218.587463,410.748016 
	C217.966370,404.279114 217.727417,403.837677 211.348511,404.314667 
	C202.887177,404.947357 194.446121,405.892212 186.013489,406.853180 
	C180.494049,407.482178 177.046066,405.806061 176.099182,401.684967 
	C175.179184,397.680908 177.714005,394.554413 183.301453,393.370483 
	C193.091400,391.296143 203.018036,390.085693 213.015015,389.777954 
	C216.965790,389.656342 218.570648,388.333832 218.802536,384.215942 
	C219.147659,378.087189 219.764587,371.889282 221.162537,365.931183 
	C222.272568,361.200256 220.412201,360.026489 216.437790,359.509216 
	C206.694489,358.241150 196.964096,356.941711 187.104324,357.023285 
	C184.953384,357.041077 182.772293,356.847260 180.653015,356.476776 
	C177.291550,355.889099 175.222855,353.724884 175.108078,350.340851 
	C174.987106,346.773529 176.967499,344.333832 180.430374,343.398682 
	C182.011978,342.971619 183.712692,342.892609 185.365463,342.836945 
	C197.059036,342.443359 208.666351,343.569092 220.188812,345.346497 
	C224.116821,345.952423 225.827347,344.991150 227.029129,341.149506 
	C237.071274,309.048828 253.674561,280.583984 275.437622,255.063705 
	C278.306122,251.699997 278.157715,247.701889 278.681824,243.798599 
	C282.361389,216.395645 288.831879,189.819778 302.114777,165.295441 
	C305.389618,159.249084 309.658844,153.924713 314.789764,149.305923 
	C323.134308,141.794296 333.847870,140.301392 343.995056,145.221237 
	C352.654999,149.419998 358.785004,156.518295 364.788483,163.643860 
	C374.931488,175.682739 383.339905,188.911087 389.578400,203.363541 
	C391.659576,208.184891 394.534058,209.138794 399.238586,208.623047 
	C427.630127,205.510452 455.748077,207.536499 483.590363,213.683197 
	C498.087952,216.883789 512.253601,221.238144 525.996460,226.856339 
	C529.438599,228.263489 531.404480,227.590744 533.446655,224.531815 
	C543.461609,209.530441 554.438965,195.305130 568.002319,183.260925 
	C577.262634,175.037735 587.134888,167.697678 598.465271,162.536880 
	C614.076355,155.426270 625.327209,158.923477 633.967407,173.770554 
	C641.483948,186.686722 644.306702,201.023376 646.334595,215.630646 
	C648.847656,233.732803 647.937805,251.855331 647.320740,269.991333 
	C647.228943,272.689209 647.451843,275.260193 648.934326,277.672760 
	C673.038940,316.901642 686.755371,360.094025 697.383728,404.484650 
	C702.693115,426.659790 705.920776,449.244537 710.805847,471.492859 
	C717.024536,499.815216 729.238953,526.009460 740.412170,552.549072 
	C751.675110,579.302063 762.070740,606.329834 766.552612,635.198730 
	C768.442688,647.372986 769.565369,659.641113 769.313843,672.006287 
	C769.177429,678.712585 769.591309,679.303711 776.384277,678.710571 
	C797.338379,676.881042 813.216614,666.349182 823.818542,648.573669 
	C835.377380,629.193787 839.307251,607.943604 835.812317,585.573120 
	C832.249084,562.765564 818.560547,549.935547 795.529053,547.351074 
	C789.706238,546.697632 784.021912,545.445374 778.564697,543.350952 
	C759.244446,535.935913 750.723999,518.572021 756.451050,498.627350 
	C761.153564,482.251007 771.978088,470.874939 786.348145,462.699890 
	C823.197205,441.736664 865.760376,450.594421 893.141907,485.018982 
	C911.782410,508.454102 922.353027,535.493835 925.229187,565.098816 
	C930.840271,622.854614 916.387024,675.519470 881.825928,722.164307 
	C863.970398,746.262573 840.121460,762.301331 810.399658,768.315247 
	C791.013733,772.237793 771.599609,771.263000 752.630005,765.394714 
	C748.422974,764.093140 746.158813,764.869812 743.631836,768.549622 
	C724.811707,795.955444 697.771118,811.406433 666.237183,818.831543 
	C625.984741,828.309631 585.690796,827.671448 545.915100,815.271973 
	C540.334656,813.532349 534.961060,811.286621 529.738037,808.678040 
	C527.999207,807.809570 526.456970,807.220520 524.859497,809.074951 
	C512.731812,823.152100 496.518707,828.491577 478.760223,829.891663 
	C459.410065,831.417114 440.515076,829.257019 422.333496,820.786560 
M708.033081,517.303406 
	C703.248901,504.333008 698.646057,491.307800 695.670532,477.769806 
	C689.993774,451.942047 686.175842,425.733032 679.602722,400.086914 
	C669.227722,359.606903 656.498291,320.067719 633.894165,284.432739 
	C631.473206,280.616180 630.484436,276.563416 630.748413,272.086761 
	C631.847717,253.448853 632.498535,234.805984 629.659851,216.254303 
	C627.816895,204.209686 625.415588,192.268631 619.390747,181.473923 
	C615.712769,174.884171 612.050476,173.807465 605.333069,176.938370 
	C591.548462,183.363235 579.814880,192.589493 569.617188,203.756882 
	C559.590393,214.737198 551.444824,227.162170 542.923035,239.294724 
	C538.172791,246.057724 534.687439,246.973785 527.093628,243.665909 
	C492.825165,228.738312 456.956940,221.824173 419.645599,222.398163 
	C411.333832,222.526031 403.013885,223.225250 394.733917,224.032791 
	C384.549500,225.026077 380.929291,223.169739 376.687042,213.869080 
	C373.852539,207.654846 371.058380,201.424820 367.532867,195.553894 
	C360.374542,183.633331 352.167755,172.536743 341.605164,163.392883 
	C333.886932,156.711334 328.833618,157.175812 321.984924,164.791443 
	C317.587128,169.681686 314.620605,175.476196 311.811218,181.336105 
	C302.332123,201.108002 298.132416,222.314850 295.397888,243.835983 
	C294.292267,252.537491 292.770966,260.431641 286.446106,267.434540 
	C271.957977,283.475739 260.718140,301.819580 251.632141,321.424225 
	C247.515411,330.306732 243.991486,339.445496 241.594101,348.748230 
	C242.982758,350.262909 244.507889,350.403351 245.935440,350.836365 
	C251.511597,352.527893 257.126007,354.122192 262.612762,356.071869 
	C268.738525,358.248596 271.155518,361.665253 269.903839,365.643585 
	C268.660370,369.595917 264.534119,370.863312 258.445801,369.142151 
	C252.998978,367.602295 247.565048,366.016235 242.110519,364.504333 
	C239.164917,363.687897 237.370132,364.517059 236.925552,367.887878 
	C236.229691,373.164062 235.263718,378.404938 234.394470,383.657867 
	C233.809189,387.194702 234.911026,388.854187 238.867020,388.774567 
	C244.852936,388.654205 250.869904,388.822205 256.835999,389.319641 
	C263.017059,389.834961 265.827972,392.541168 265.477844,396.790222 
	C265.139099,400.901398 261.793213,403.156006 255.736450,403.209412 
	C250.571198,403.254974 245.404541,403.134338 240.239166,403.173370 
	C234.061935,403.220032 233.941360,403.435699 234.091293,409.814545 
	C234.303467,418.841492 235.811935,427.687836 237.853867,436.442505 
	C243.571838,460.958038 254.644791,483.050293 268.773987,503.689941 
	C272.177826,508.662140 273.174835,513.381348 270.548920,519.080017 
	C258.072510,546.155823 245.568298,573.222778 233.498596,600.480957 
	C222.969940,624.258728 213.706970,648.417542 210.575546,674.611877 
	C206.514389,708.583679 223.871674,736.201233 256.398407,746.015503 
	C258.413788,746.623657 260.438873,747.621521 262.677399,746.346802 
	C262.744354,745.662170 262.885162,745.007812 262.854706,744.361633 
	C262.799927,743.198608 262.734467,742.022583 262.514557,740.882690 
	C255.622574,705.161133 256.700378,669.316650 260.966034,633.443848 
	C261.612793,628.004883 262.753296,622.599426 264.050812,617.272339 
	C264.858063,613.958008 267.181915,611.523438 270.898224,611.908325 
	C274.700531,612.302185 276.060669,615.260986 276.236847,618.689392 
	C276.364563,621.174744 276.255981,623.695740 275.995697,626.173828 
	C274.133057,643.906555 272.987579,661.671936 273.020172,679.513672 
	C273.065613,704.390503 274.324951,729.131104 281.232697,753.223816 
	C285.330994,767.517822 291.648224,780.651733 302.784515,790.910278 
	C307.993011,795.708374 313.949738,799.383667 321.648407,801.920593 
	C320.989838,798.844666 320.526855,796.931030 320.175446,794.997070 
	C318.778381,787.308960 316.945465,779.655457 318.449646,771.742859 
	C319.133148,768.147400 320.689789,765.126770 324.750671,765.264648 
	C328.495941,765.391663 329.902588,768.208313 330.468201,771.714783 
	C331.632996,778.936035 332.451782,786.288025 334.469940,793.281189 
	C338.778198,808.209961 337.280304,807.969971 353.306519,807.573669 
	C376.764771,806.993591 392.769073,790.261963 391.762878,767.481201 
	C391.498413,761.492859 391.611084,755.483826 391.681122,749.485901 
	C391.746704,743.871826 394.417328,740.261475 398.505310,739.957947 
	C402.742584,739.643433 405.983704,743.235474 406.327728,749.108215 
	C406.765869,756.587708 406.902985,764.084290 407.226959,771.571045 
	C407.993835,789.293762 416.430634,801.774231 432.799652,808.771729 
	C437.019897,810.575806 441.285431,812.264893 446.307312,812.003601 
	C445.947449,808.175293 445.466003,804.718994 445.327209,801.248962 
	C444.980011,792.571411 445.483582,783.944397 447.758148,775.515869 
	C448.647919,772.218872 450.566498,769.620728 454.351593,769.808472 
	C458.338287,770.006042 459.426025,773.204163 459.902405,776.444397 
	C460.238373,778.729553 460.076477,781.093201 460.074677,783.421814 
	C460.069946,789.562195 459.004333,795.629517 459.942352,801.856812 
	C462.225677,817.014954 459.813446,815.014099 475.280334,814.737793 
	C502.491272,814.251770 519.878418,798.693359 523.750366,771.719177 
	C524.741699,764.813049 525.003601,757.804810 525.722717,750.856140 
	C526.138123,746.842957 527.918640,743.730286 532.416077,743.496948 
	C536.621765,743.278809 538.781677,745.905945 539.682312,749.686829 
	C540.064148,751.289612 540.243042,752.971985 540.271973,754.622498 
	C540.471619,766.017517 539.365662,777.272888 535.541626,788.063293 
	C534.123657,792.064392 535.086243,794.388000 538.807190,795.973816 
	C540.950195,796.887024 542.989929,798.050598 545.152893,798.907776 
	C560.469543,804.977783 576.453430,807.826294 592.830383,809.042664 
	C618.261230,810.931580 643.443115,809.933899 668.077759,802.804138 
	C689.595703,796.576477 708.878906,786.425598 723.713379,769.134216 
	C743.823364,745.693665 751.660217,717.547668 753.540161,687.562012 
	C755.490967,656.445496 750.365723,626.206421 740.258972,596.701782 
	C731.066956,569.867371 718.692200,544.354736 708.033081,517.303406 
M850.879150,577.873535 
	C856.640869,604.610046 852.255859,630.141235 839.506592,653.793274 
	C825.399170,679.964905 802.807251,694.006165 772.702271,694.849609 
	C769.493042,694.939453 768.421326,695.787964 768.023621,698.945496 
	C766.019653,714.856323 762.685791,730.471924 756.288818,745.268311 
	C754.727478,748.879761 755.851929,750.245361 759.400940,751.242004 
	C775.100525,755.651001 790.982727,756.222839 806.858459,753.027100 
	C832.715942,747.821960 853.283081,733.636353 868.755554,712.809265 
	C901.872131,668.231934 915.847778,618.117920 908.503296,562.815613 
	C905.120911,537.347717 895.958374,513.867981 879.570068,493.597137 
	C858.322083,467.315338 825.668091,460.190125 795.690552,475.761292 
	C783.248657,482.224030 773.895447,491.589233 771.109558,506.090851 
	C769.283752,515.594604 773.389954,523.659363 782.135925,527.769470 
	C787.195740,530.147339 792.614685,530.982178 798.075073,531.637878 
	C825.625854,534.946045 843.392700,550.294983 850.879150,577.873535 
z"/>
<path fill="currentColor" opacity="1.000000" stroke="none" 
	d="
M401.572144,396.415161 
	C399.685638,394.689758 398.316345,393.019562 397.426727,391.006165 
	C395.434998,386.498505 396.927979,381.975647 401.511200,380.264191 
	C408.845123,377.525543 416.327881,377.877594 423.376373,381.194336 
	C429.024841,383.852264 429.893951,389.825684 425.638580,394.492249 
	C424.310699,395.948395 422.641693,397.131256 421.006256,398.261902 
	C416.583862,401.319214 416.212982,403.665436 419.625214,407.926361 
	C423.547394,412.824219 429.266846,414.333710 435.864197,412.070129 
	C438.759033,411.076843 441.880432,409.502289 443.547668,413.444916 
	C445.177887,417.300018 442.079987,419.338318 439.411499,420.958679 
	C432.216614,425.327576 421.329224,423.487061 414.202881,416.254578 
	C411.319855,413.328613 409.641510,413.758728 406.826904,415.980927 
	C401.338470,420.314148 395.124878,422.265594 388.128784,419.973633 
	C385.718109,419.183899 383.534607,417.977142 381.882507,415.999054 
	C380.189087,413.971436 378.923553,411.750488 380.909058,409.271301 
	C383.016815,406.639496 385.303314,407.907898 387.566376,409.227997 
	C392.453857,412.078827 397.159698,411.487457 401.555115,408.170532 
	C406.664154,404.315155 406.713745,400.727325 401.572144,396.415161 
z"/>
<path fill="currentColor" opacity="1.000000" stroke="none" 
	d="
M571.891296,430.283752 
	C564.542175,429.278015 557.638672,428.202911 550.702332,427.417694 
	C546.518005,426.944000 543.036255,425.849548 542.769348,420.924469 
	C542.546631,416.814209 545.881592,413.890808 551.401306,413.971283 
	C565.424011,414.175690 579.249695,416.229004 592.945618,419.177155 
	C601.088074,420.929932 609.166321,422.934296 617.019043,425.741852 
	C622.506104,427.703583 624.498230,430.967804 623.096680,435.473480 
	C621.912415,439.280609 617.801086,440.945465 612.696838,439.529846 
	C599.380676,435.836792 586.003723,432.423553 571.891296,430.283752 
z"/>
<path fill="currentColor" opacity="1.000000" stroke="none" 
	d="
M602.950317,375.725891 
	C608.389038,375.367737 613.363037,374.852264 618.346375,374.737640 
	C623.735352,374.613678 626.800964,376.984589 627.022888,380.946442 
	C627.228577,384.618530 624.182678,387.735718 619.167786,388.406616 
	C606.465698,390.105865 593.720886,391.491058 581.028687,393.257141 
	C571.966553,394.518158 562.955505,396.154907 553.934021,397.696747 
	C548.568787,398.613708 545.244324,397.156952 544.277100,393.282410 
	C543.339661,389.526886 545.680664,386.334717 550.925293,384.910461 
	C567.834351,380.318634 585.102539,377.681641 602.950317,375.725891 
z"/>
<path fill="currentColor" opacity="1.000000" stroke="none" 
	d="
M351.505371,369.897888 
	C343.840302,372.227448 337.754425,370.225830 333.691132,364.326416 
	C327.604584,355.489502 330.567535,339.931061 339.482849,333.913971 
	C345.668793,329.738922 353.040466,330.821686 357.746674,336.596558 
	C365.702667,346.359161 362.714203,363.182556 351.505371,369.897888 
z"/>
<path fill="currentColor" opacity="1.000000" stroke="none" 
	d="
M495.794342,376.978210 
	C485.705994,382.548218 476.473114,378.925995 473.021149,368.400543 
	C470.880890,361.874634 471.797974,355.530060 474.704132,349.554169 
	C477.525970,343.751465 482.238434,340.214386 488.985382,340.626434 
	C495.727448,341.038208 500.128632,345.024994 502.017090,351.230713 
	C504.907745,360.729797 504.030304,369.630646 495.794342,376.978210 
z"/>
</svg>