<svg xmlns="http://www.w3.org/2000/svg" viewBox="0 0 24 24" fill="none" aria-hidden="true">
  <path fill="currentColor" fill-rule="evenodd" clip-rule="evenodd" d="M12 2.4a9.6 9.6 0 0 0-3.04 18.7c.48.09.65-.2.65-.46v-1.7c-2.65.58-3.2-1.12-3.2-1.12-.43-1.1-1.06-1.4-1.06-1.4-.87-.58.07-.57.07-.57.96.07 1.47.99 1.47.99.86 1.46 2.24 1.04 2.78.8.09-.62.34-1.04.61-1.28-2.11-.24-4.34-1.06-4.34-4.72 0-1.04.37-1.9.98-2.56-.1-.25-.43-1.22.1-2.53 0 0 .8-.26 2.64.98A9.2 9.2 0 0 1 12 6.2c.82 0 1.63.11 2.4.33 1.82-1.24 2.62-.98 2.62-.98.53 1.31.2 2.28.1 2.53.61.67.98 1.52.98 2.56 0 3.67-2.23 4.48-4.35 4.72.35.3.65.88.65 1.78v2.64c0 .25.17.55.66.46A9.6 9.6 0 0 0 12 2.4Z"/>
</svg>
